<?xml version="1.0" encoding="UTF-8" standalone="no"?>
<!-- Created with Inkscape (http://www.inkscape.org/) -->

<svg
   version="1.1"
   id="svg9"
   width="232.8"
   height="37.900002"
   viewBox="0 0 232.8 37.900002"
   sodipodi:docname="rueda-dentada - copia.svg"
   inkscape:version="1.4.3 (0d15f75, 2025-12-25)"
   xmlns:inkscape="http://www.inkscape.org/namespaces/inkscape"
   xmlns:sodipodi="http://sodipodi.sourceforge.net/DTD/sodipodi-0.dtd"
   xmlns="http://www.w3.org/2000/svg"
   xmlns:svg="http://www.w3.org/2000/svg">
  <defs
     id="defs13" />
  <sodipodi:namedview
     id="namedview11"
     pagecolor="#ffffff"
     inkscape:pageshadow="2"
     inkscape:pageopacity="0.0"
     inkscape:pagecheckerboard="true"
     showgrid="false"
     objecttolerance="20"
     fit-margin-top="0"
     fit-margin-left="0"
     fit-margin-right="0"
     fit-margin-bottom="0"
     inkscape:zoom="1.1114503"
     inkscape:cx="57.582422"
     inkscape:cy="342.34549"
     inkscape:window-width="2560"
     inkscape:window-height="1494"
     inkscape:window-x="-11"
     inkscape:window-y="-11"
     inkscape:window-maximized="1"
     inkscape:current-layer="g15"
     bordercolor="#000000"
     borderopacity="0.25"
     inkscape:showpageshadow="2"
     inkscape:deskcolor="#d1d1d1" />
  <g
     inkscape:groupmode="layer"
     inkscape:label="Image"
     id="g15">
    <g
       id="g7">
      <path
         fill="#FFFFFF"
         d="m 57.1,10.6 h 6 v 3.2 h 0.1 c 1.8,-2.4 4.3,-3.7 7.4,-3.7 3.5,0 5.8,1.4 7.4,3.9 h 0.1 c 1.8,-2.3 4.5,-3.9 8,-3.9 4.8,0 9.1,2.8 9.1,9.2 V 36.7 H 89 V 21.5 c 0,-3.5 -1.2,-6 -4.7,-6 -3.5,0 -5,2.7 -5,6.1 v 15 h -6.2 v -15 c 0,-3.3 -1,-6.1 -4.7,-6.1 -2.2,0 -5,1.5 -5,5.8 v 15.3 h -6.2 v -26 z"
         id="path1" />
      <path
         fill="#FFFFFF"
         d="m 100.9,0 h 6.2 v 6.6 h -6.2 z m 0,10.6 h 6.2 v 26.1 h -6.2 z"
         id="path2" />
      <path
         fill="#FFFFFF"
         d="m 112.8,10.6 h 6.1 v 3.2 h 0.1 c 1.7,-2.5 4.5,-3.7 7.4,-3.7 5.9,0 9.1,3.7 9.1,9.9 v 16.7 h -6.2 V 21.6 c 0,-3.9 -1.7,-6 -4.8,-6 -3.4,0 -5.4,2.1 -5.4,6.5 v 14.6 h -6.2 V 10.6 Z"
         id="path3" />
      <path
         fill="#FFFFFF"
         d="M 140.5,27.3 V 10.6 h 6.2 v 15.1 c 0,3.9 1.7,6 4.9,6 3.4,0 5.4,-2.1 5.4,-6.6 V 10.6 h 6.2 v 26.1 h -6 v -3.2 h -0.1 c -1.7,2.5 -4.4,3.7 -7.3,3.7 -6,0 -9.3,-3.8 -9.3,-9.9"
         id="path4" />
      <path
         fill="#FFFFFF"
         d="m 169.5,30.5 v -15 H 166 v -4.9 h 3.5 V 2.7 h 6.2 v 7.9 h 5.7 v 4.9 h -5.7 V 29 c 0,1.9 1,2.5 2.4,2.5 1.3,0 2,-0.1 3.2,-0.3 v 5.3 c -1.4,0.4 -3.7,0.5 -4.6,0.5 -4,0.1 -7.2,-1.8 -7.2,-6.5"
         id="path5" />
      <path
         fill="#FFFFFF"
         d="m 183.3,27.1 v -6 c 0,-7.1 6,-11 11.8,-11 6.3,0 12,4.2 12,10.8 v 5.4 c 0,7.1 -6,11 -11.8,11 -6.4,0 -12,-3.6 -12,-10.2 m 17.4,-0.2 v -6.5 c 0,-3.2 -2.4,-5 -5.6,-5 -2.6,0 -5.4,1.4 -5.4,5.2 V 27 c 0,3.2 2.4,5 5.6,5 2.5,0 5.4,-1.3 5.4,-5.1"
         id="path6" />
      <path
         fill="#FFFFFF"
         d="m 209.7,32.2 4.4,-3.3 c 1.6,2.1 4.2,3.4 7.2,3.4 2.5,0 5.1,-0.9 5.1,-3.2 0,-2 -1.4,-2.5 -4.9,-3.1 l -3.4,-0.6 c -4.3,-0.8 -7.1,-2.9 -7.1,-6.8 0,-5.4 4.8,-8.5 10.3,-8.5 4.7,0 8,1.2 10.2,4.3 l -4.5,3.1 c -1.5,-1.8 -3.3,-2.5 -5.8,-2.5 -2.5,0 -4.2,0.9 -4.2,2.9 0,1.8 2.2,2.1 4.9,2.6 l 3.9,0.8 c 4.4,0.9 7,3.4 7,7.3 0,6 -6.2,8.9 -11.5,8.9 -4.6,-0.3 -9,-1.5 -11.6,-5.3"
         id="path7" />
    </g>
    <g
       id="g8">
      <polygon
         fill="#FFFFFF"
         points="23.4,37.3 23.4,31.8 10.3,31.8 4.8,37.3 "
         id="polygon7" />
      <path
         fill="#FFFFFF"
         d="M 13.1,18.6 0.9,33 v 4.3 h 2.9 l 5.6,-5.6 v 0 l 4.7,-5.3 C 18.4,21.6 23.3,17 23.3,10.2 23.3,4.3 19.3,0 11.9,0 5,0 0,3.3 0,9.8 v 1.3 h 6.2 v -1 c 0,-2.9 1.8,-4.8 5.1,-4.8 3.5,0 5.1,2 5.1,4.5 v 1 c 0,3 -1.3,5.4 -3.3,7.8"
         id="path8" />
    </g>
    <path
       fill="#FFFFFF"
       d="m 44.4,26.7 c 0,3.1 -2,5.9 -5.9,5.9 -3.9,0 -5.9,-2.7 -5.9,-5.8 V 11.3 c 0,-3.3 2.2,-5.9 6,-5.9 2.4,0 4,1 5,2.5 V 0.8 C 42.1,0.3 40.4,0.1 38.6,0.1 32,0.1 25.8,3.7 25.8,11.3 V 27 c 0,7.8 6.4,10.9 12.8,10.9 6.4,0 12.7,-3.7 12.7,-11.1 V 11.4 C 51.3,6 48.4,2.7 44.5,1.1 Z"
       id="path9" />
  </g>
</svg>
