<?xml version="1.0" encoding="UTF-8" standalone="no"?>
<!-- Created with Inkscape (http://www.inkscape.org/) -->

<svg
   width="39.5243mm"
   height="31.690865mm"
   viewBox="0 0 39.5243 31.690865"
   version="1.1"
   id="svg1"
   xml:space="preserve"
   inkscape:version="1.4.3 (0d15f75, 2025-12-25)"
   sodipodi:docname="campana.svg"
   xmlns:inkscape="http://www.inkscape.org/namespaces/inkscape"
   xmlns:sodipodi="http://sodipodi.sourceforge.net/DTD/sodipodi-0.dtd"
   xmlns="http://www.w3.org/2000/svg"
   xmlns:svg="http://www.w3.org/2000/svg"><sodipodi:namedview
     id="namedview1"
     pagecolor="#ffffff"
     bordercolor="#000000"
     borderopacity="0.25"
     inkscape:showpageshadow="2"
     inkscape:pageopacity="0.0"
     inkscape:pagecheckerboard="true"
     inkscape:deskcolor="#d1d1d1"
     inkscape:document-units="mm"
     inkscape:zoom="1.0806047"
     inkscape:cx="22.209788"
     inkscape:cy="287.33913"
     inkscape:window-width="2560"
     inkscape:window-height="1494"
     inkscape:window-x="-11"
     inkscape:window-y="-11"
     inkscape:window-maximized="1"
     inkscape:current-layer="layer1" /><defs
     id="defs1" /><g
     inkscape:label="Capa 1"
     inkscape:groupmode="layer"
     id="layer1"
     transform="translate(-99.07339,-72.412511)"><path
       style="fill:#000000"
       d="m 117.12131,103.60442 c -1.0931,-0.5411 -1.77072,-1.42601 -2.07713,-2.71259 l -0.17329,-0.7276 h 3.97883 3.97883 l -0.17328,0.7276 c -0.30878,1.29652 -0.99289,2.18294 -2.09737,2.7176 -1.36329,0.65996 -2.09537,0.65889 -3.43659,-0.005 z m -11.50075,-6.086024 c -0.82039,-0.82039 -0.65815,-1.82697 0.55463,-3.44102 0.59609,-0.79332 1.31933,-1.90407 1.60719,-2.46833 0.705,-1.38191 1.26756,-4.15928 1.27317,-6.28558 0.002,-0.95914 0.17785,-2.31958 0.38961,-3.0232 0.8405,-2.7928 3.40488,-5.38577 6.29571,-6.36592 1.20663,-0.40911 1.25677,-0.46657 1.25677,-1.44037 0,-0.78058 0.16061,-1.1406 0.69714,-1.56263 0.87946,-0.69178 1.43043,-0.69178 2.30989,0 0.53729,0.42263 0.69714,0.78176 0.69714,1.56624 0,0.98782 0.0394,1.03096 1.33635,1.46173 1.31257,0.43596 3.33477,1.79344 4.29426,2.88267 0.26765,0.30385 0.85075,1.3027 1.29577,2.21967 0.6746,1.39005 0.84421,2.14141 1.02018,4.51939 0.31886,4.30885 0.91052,6.04127 2.93657,8.59847 1.15865,1.4624 1.31481,2.51801 0.49395,3.33888 -0.51447,0.51446 -0.88195,0.52916 -13.22917,0.52916 -12.34722,0 -12.7147,-0.0147 -13.22916,-0.52916 z m -6.208063,-11.89559 c -0.615969,-0.68064 -0.364584,-1.67636 0.525624,-2.08197 0.866799,-0.39494 5.185849,-0.40431 6.044439,-0.0131 0.82356,0.37524 1.05813,1.23518 0.54892,2.01234 -0.37293,0.56915 -0.56093,0.60124 -3.52185,0.60124 -2.77044,0 -3.181517,-0.0592 -3.597133,-0.5185 z m 31.724503,-0.13 c -0.53669,-0.8191 -0.2861,-1.68134 0.58488,-2.01249 0.9223,-0.35066 5.22363,-0.31119 6.02801,0.0553 0.87485,0.39861 1.09101,1.15065 0.56255,1.95718 -0.41176,0.62842 -0.52288,0.6485 -3.58772,0.6485 -3.06484,0 -3.17596,-0.0201 -3.58772,-0.6485 z m -27.30238,-9.05467 c -1.95967,-1.04854 -2.18281,-1.24596 -2.18281,-1.93119 0,-0.85291 0.60107,-1.59981 1.27567,-1.58516 0.24426,0.005 1.51568,0.57085 2.82537,1.25677 2.05015,1.07372 2.3931,1.35052 2.46651,1.99073 0.21074,1.83785 -1.28135,1.92934 -4.38474,0.26885 z m 25.8763,0.85563 c -0.17386,-0.20948 -0.27773,-0.7155 -0.23084,-1.12448 0.0738,-0.64396 0.4164,-0.91505 2.55646,-2.02308 2.62811,-1.36073 3.55484,-1.46106 3.88506,-0.4206 0.36586,1.1527 -0.0604,1.66868 -2.33331,2.82456 -2.32047,1.18005 -3.35111,1.37771 -3.87737,0.7436 z"
       id="path6" /></g></svg>
